<svg width="15" height="15" viewBox="0 0 15 15" fill="none" xmlns="http://www.w3.org/2000/svg">
<path id="Vector" d="M10.8311 10.9197L10.5075 10.5961L14.4963 14.4703C14.4954 14.4713 14.4933 14.4732 14.4894 14.476C14.4798 14.4828 14.4649 14.4903 14.4471 14.4957C14.4432 14.4969 14.4398 14.4978 14.4368 14.4985C14.4346 14.499 14.4327 14.4994 14.4311 14.4997C14.4167 14.4984 14.4038 14.4925 14.3928 14.4814L10.8311 10.9197ZM6.38175 0.62575C3.20456 0.62575 0.6265 3.20465 0.6265 6.381C0.6265 9.55735 3.20456 12.1362 6.38175 12.1362C9.55735 12.1362 12.137 9.55744 12.137 6.381C12.137 3.20456 9.55735 0.62575 6.38175 0.62575Z" fill="#00000000" stroke="#393939"/>
</svg>
