<svg width="30" height="23" viewBox="0 0 30 23" fill="none" xmlns="http://www.w3.org/2000/svg">
<path id="Vector" d="M10.7906 0.353029C10.7906 0.353029 3.28852 7.74987 0.366687 10.6298C0.121673 10.8695 0 11.1848 0 11.5C0 11.8153 0.121673 12.1305 0.366687 12.3702C3.28685 15.2501 10.7873 22.6437 10.7873 22.6437C11.0289 22.8818 11.3473 23 11.6656 23C11.984 22.9984 12.304 22.8785 12.549 22.6371C13.0374 22.1561 13.0391 21.3794 12.5557 20.9016L4.2619 12.7314H28.7499C29.44 12.7314 30 12.1798 30 11.5C30 10.8203 29.44 10.2686 28.7499 10.2686H4.2619L12.559 2.09346C13.0407 1.61895 13.0374 0.843963 12.549 0.362881C12.304 0.121519 11.984 1.68695e-05 11.6656 1.68695e-05C11.3473 -0.00162505 11.0323 0.116593 10.7906 0.353029Z" fill="#393939"/>
</svg>
